<svg xmlns="http://www.w3.org/2000/svg" viewBox="0 0 48 47"><defs><style>.cls-1{fill:#fff;}</style></defs><title>Artboard 1</title><g id="White_-_Expanded" data-name="White - Expanded"><g id="Docker"><path class="cls-1" d="M47.21,18.89a7.43,7.43,0,0,0-5.64-.53,7.71,7.71,0,0,0-3.05-4.92l-.61-.5-.53.61a6.57,6.57,0,0,0-1.18,4.69,6.38,6.38,0,0,0,1.14,3.16,11.78,11.78,0,0,1-1.64.92,10.45,10.45,0,0,1-3.39.76H29.75V17.71h-5V7.52H19.07v4.91H9.54v5.28h-5V23H.31l-.08.57a14,14,0,0,0,1.14,7.05l.42.84,0,.08c3,5.11,8.27,7.24,14,7.24,11.13,0,20.32-5,24.52-15.48,2.82.15,5.72-.69,7.09-3.39l.34-.69-.61-.38ZM10.3,13.58h3.81v4.19H10.3Zm5,17.17a1.18,1.18,0,1,1-1.18-1.18A1.21,1.21,0,0,1,15.3,30.75Zm-5-11.9h3.81V23H10.3Zm-5,0H9.54V23H5.34ZM15.91,38c-6,0-9.26-2.06-11.93-4.73.8,0,1.56.08,2.25.08s1.22,0,1.79,0a17.51,17.51,0,0,0,3.85-.57A10.36,10.36,0,0,0,17.2,38ZM19.07,23H14.88V18.85h4.19Zm0-5.28H14.88V13.58h4.19ZM24,23H19.83V18.85H24Zm0-5.28H19.83V13.58H24Zm0-5.29H19.83V8.28H24ZM29,23H24.79V18.85H29ZM14.42,30a.72.72,0,0,0-.31-.08.84.84,0,1,0,.84.84.72.72,0,0,0-.08-.31.34.34,0,0,1-.65-.15A.47.47,0,0,1,14.42,30Z"/></g></g></svg>