<svg id="Blue_-_Expanded" data-name="Blue - Expanded" xmlns="http://www.w3.org/2000/svg" viewBox="0 0 48 47"><defs><style>.cls-1{fill:#1180c4;}</style></defs><title>Artboard 1</title><g id="Container_Platforms" data-name="Container Platforms"><path class="cls-1" d="M37,18.5h0a1,1,0,0,0-.07-.35s0,0,0,0l0-.05a1,1,0,0,0-.15-.22l-.06-.07a1,1,0,0,0-.29-.19l-12-5a1,1,0,0,0-.77,0l-12,5h0a1,1,0,0,0-.29.19l-.07.07a1,1,0,0,0-.15.22l0,.05s0,0,0,0a1,1,0,0,0-.07.35h0v14a1,1,0,0,0,.62.92l12,5h0a1,1,0,0,0,.77,0h0l12-5A1,1,0,0,0,37,32.5v-14ZM24,14.58l9.4,3.92L24,22.42,14.6,18.5ZM13,20l10,4.17V36L13,31.83ZM25,36V24.17L35,20V31.83Z"/><path class="cls-1" d="M47,0H1A1,1,0,0,0,0,1V46a1,1,0,0,0,1,1H47a1,1,0,0,0,1-1V1A1,1,0,0,0,47,0ZM46,2V6H2V2ZM2,45V8H46V45Z"/><rect class="cls-1" x="4" y="3.02" width="2" height="2"/><rect class="cls-1" x="8" y="3.02" width="2" height="2"/><rect class="cls-1" x="12" y="3.02" width="2" height="2"/></g></svg>