<svg id="Blue_-_Expanded" data-name="Blue - Expanded" xmlns="http://www.w3.org/2000/svg" viewBox="0 0 48 47"><defs><style>.cls-1{fill:#1180c4;}</style></defs><title>Artboard 1</title><g id="Container_Security" data-name="Container Security"><path class="cls-1" d="M42,7.51C37.11,7.51,26.27,3.09,24.84,1a1,1,0,0,0-1.66,0C21.67,3.22,10.43,7.51,6,7.51a1,1,0,0,0-1,1v21C5,39.58,23.54,46.4,23.73,46.46a1,1,0,0,0,.54,0C24.46,46.4,43,38.86,43,30.51v-22A1,1,0,0,0,42,7.51Zm-1,23c0,5.85-14.15,12.88-17,13.93-2.71-1-17-7.39-17-14.93V9.45C11.73,9,20.83,5.67,24,3,27.16,5.76,36.11,9,41,9.46Z"/><path class="cls-1" d="M11.62,15.08h0a1,1,0,0,0-.28.18l-.07.08a1,1,0,0,0-.15.22l0,.05s0,0,0,0A1,1,0,0,0,11,16h0V30a1,1,0,0,0,.62.92l12,5h0a1,1,0,0,0,.77,0h0l12-5A1,1,0,0,0,37,30V16h0a1,1,0,0,0-.07-.35s0,0,0,0l0-.05a1,1,0,0,0-.15-.22l-.07-.07a1,1,0,0,0-.29-.19h0l-12-5a1,1,0,0,0-.77,0ZM13,17.51l10,4.17V33.51L13,29.34Zm12,16V21.67l10-4.17V29.34ZM33.4,16,24,19.92,14.6,16,24,12.09Z"/></g></svg>