<svg id="Blue_-_Expanded" data-name="Blue - Expanded" xmlns="http://www.w3.org/2000/svg" viewBox="0 0 48 47"><defs><style>.cls-1{fill:#1180c4;}</style></defs><title>Artboard 1</title><path id="Kuberneted_Edit" data-name="Kuberneted Edit" class="cls-1" d="M46.33,28.2l-.14,0-.25-.06a5.6,5.6,0,0,0-.86-.08l-.45,0a12.15,12.15,0,0,1-2.33-.38,1.25,1.25,0,0,1-.48-.48l-.06-.09-.48-.14A17.42,17.42,0,0,0,38.53,15l.21-.19.22-.2v-.15a.8.8,0,0,1,.2-.57,12.38,12.38,0,0,1,2-1.37l.38-.21a5.5,5.5,0,0,0,.74-.44l.21-.17.09-.07a1.68,1.68,0,0,0,.62-1A1.37,1.37,0,0,0,41.88,9a1.68,1.68,0,0,0-1.15.37l-.07.06-.23.18a5.89,5.89,0,0,0-.61.63l-.28.31,0,0a12.11,12.11,0,0,1-1.72,1.56,1.24,1.24,0,0,1-.67.08H37l-.45.32a17.53,17.53,0,0,0-11-5.29c0-.18,0-.41,0-.49V6.73l-.11-.1a.81.81,0,0,1-.32-.52,12,12,0,0,1,.14-2.33V3.72c0-.15,0-.29.07-.42a5.68,5.68,0,0,0,.11-.86c0-.07,0-.16,0-.25V2.06A1.54,1.54,0,0,0,24,.46a1.38,1.38,0,0,0-1,.48,1.68,1.68,0,0,0-.42,1.13h.12l-.12,0v.11c0,.08,0,.17,0,.24a5.66,5.66,0,0,0,.11.86c0,.14.05.27.07.44a12.47,12.47,0,0,1,.15,2.35,1.34,1.34,0,0,1-.4.62l0,0,0,.5a17.56,17.56,0,0,0-2.32.36,17.26,17.26,0,0,0-8.69,4.93L11,12.27l0,0-.15,0a.8.8,0,0,1-.61-.07,12.47,12.47,0,0,1-1.77-1.6l-.28-.31a5.73,5.73,0,0,0-.6-.63l-.23-.18-.07-.06a1.72,1.72,0,0,0-1-.38,1.4,1.4,0,0,0-1.16.52,1.54,1.54,0,0,0,.37,2.15l.08.06.21.16a5.64,5.64,0,0,0,.74.45l.38.21a12.3,12.3,0,0,1,2,1.37,1.24,1.24,0,0,1,.23.64l0,.11.38.34a17.36,17.36,0,0,0-2.69,11.9l-.49.14-.08.1a1.57,1.57,0,0,1-.46.47A12.44,12.44,0,0,1,3.35,28l-.43,0a5.54,5.54,0,0,0-.86.08l-.24.06-.12,0h0A1.54,1.54,0,0,0,.45,30a1.54,1.54,0,0,0,1.86,1.07l.14,0L2.71,31a5.84,5.84,0,0,0,.82-.3l.39-.16H4a12.23,12.23,0,0,1,2.25-.66,1.17,1.17,0,0,1,.63.22l.1.06L7.46,30a17.46,17.46,0,0,0,7.61,9.5l-.22.53,0,0a1.3,1.3,0,0,1,.12.66,12.84,12.84,0,0,1-1.19,2.14l-.25.35a5.7,5.7,0,0,0-.48.73l-.11.23-.06.13a1.54,1.54,0,0,0,.63,2.06,1.33,1.33,0,0,0,.58.13,1.61,1.61,0,0,0,1.41-.92l.07-.14.11-.23a5.59,5.59,0,0,0,.27-.82c0-.13.07-.27.12-.41s.2-.54.29-.8a5,5,0,0,1,.72-1.56,1,1,0,0,1,.51-.24h.05l.28-.5a17.35,17.35,0,0,0,12.18,0l.1.19.13.23,0,0,.14,0a.81.81,0,0,1,.52.33A12.24,12.24,0,0,1,31.91,44v0c0,.14.08.27.12.41a5.65,5.65,0,0,0,.27.83l.12.25,0,.1a1.46,1.46,0,1,0,2.63-1.25l-.06-.13L34.94,44a5.66,5.66,0,0,0-.47-.72l-.25-.35a12.55,12.55,0,0,1-1.17-2.08.8.8,0,0,1,.06-.61l.06-.17,0-.05a2.7,2.7,0,0,1-.13-.32l0-.09A17.4,17.4,0,0,0,40.58,30l.46.08h.05l.13-.09a.81.81,0,0,1,.58-.2,12.26,12.26,0,0,1,2.26.66h0l.4.16a5.52,5.52,0,0,0,.81.3l.22,0,.12,0h.05a1.46,1.46,0,1,0,.65-2.84ZM19.09,29.81,16.51,36A13.57,13.57,0,0,1,11.2,29.4l6.65-1.13v0h.07a.81.81,0,0,1,.21,0,1,1,0,0,1,1,.82,1,1,0,0,1-.06.65l0,.07Zm-1.72-7.65A1,1,0,0,1,17,24l-.08,0-6.49,1.88a13.68,13.68,0,0,1,1.87-8.33l5.06,4.53v0Zm4.45-4.35h0v.07a1,1,0,0,1-1.67.8l-.07,0h0L14.5,14.74a13.63,13.63,0,0,1,6.44-3.46c.4-.09.83-.17,1.26-.22Zm4,8.24L24,26.93l-1.82-.88-.45-2L23,22.53h2l1.26,1.57ZM23,31.7l0-.07a1.05,1.05,0,0,1,.89-.55,1,1,0,0,1,.49.1,1,1,0,0,1,.47.45l.06.07,3.28,5.93c-.39.13-.79.24-1.2.33a13.66,13.66,0,0,1-7.31-.34Zm5.86-2a1.05,1.05,0,0,1,.91-1.46.92.92,0,0,1,.24,0h.09l6.71,1.13a13.66,13.66,0,0,1-5.33,6.69l-2.61-6.3h0Zm8.74-3.83L31.11,24v0l-.08,0a1,1,0,0,1-.41-1.8l5.09-4.57a13.85,13.85,0,0,1,1.92,8.3Zm-9.69-7.21h0l-.06,0a1.05,1.05,0,0,1-1.67-.8v-.08h0l-.38-6.75a13.77,13.77,0,0,1,7.65,3.69Z"/></svg>