<svg id="Blue_-_Expanded" data-name="Blue - Expanded" xmlns="http://www.w3.org/2000/svg" viewBox="0 0 48 47"><defs><style>.cls-1{fill:#1180c4;}</style></defs><title>Artboard 1</title><g id="Container_Ops" data-name="Container Ops"><path class="cls-1" d="M46.36,26.43l-3-1.93v-2l3-1.93a1,1,0,0,0,.42-1.13L45.7,15.79a1,1,0,0,0-.94-.72L41,15l-1-1.7L41.85,10a1,1,0,0,0-.17-1.19L39,6.16A1,1,0,0,0,37.81,6L34.53,7.81l-1.7-1-.06-3.75A1,1,0,0,0,32,2.12L28.39,1.05a1,1,0,0,0-1.12.42l-1.93,3h-2l-1.93-3a1,1,0,0,0-1.13-.42L16.63,2.13a1,1,0,0,0-.72.94l-.06,3.75-1.7,1L10.87,6a1,1,0,0,0-1.19.17L7,8.83A1,1,0,0,0,6.83,10l1.82,3.28-1,1.7-3.75.06a1,1,0,0,0-.94.72L1.89,19.45a1,1,0,0,0,.42,1.12l3,1.93v2l-3,1.93a1,1,0,0,0-.42,1.13L3,31.21a1,1,0,0,0,.94.72L7.67,32l1,1.7L6.83,37A1,1,0,0,0,7,38.16l2.68,2.68a1,1,0,0,0,1.19.17l3.28-1.82,1.7,1,.06,3.75a1,1,0,0,0,.72.94l3.66,1.07a1,1,0,0,0,1.12-.42l1.93-3h2l1.93,3a1,1,0,0,0,1.13.42L32,44.87a1,1,0,0,0,.72-.94l.06-3.75,1.7-1L37.81,41A1,1,0,0,0,39,40.84l2.68-2.68A1,1,0,0,0,41.85,37L40,33.69,41,32l3.75-.06a1,1,0,0,0,.94-.72l1.07-3.66A1,1,0,0,0,46.36,26.43ZM44,29.94,40.42,30a1,1,0,0,0-.85.5L38,33.18a1,1,0,0,0,0,1l1.73,3.12-1.61,1.61L35,37.16a1,1,0,0,0-1,0l-2.68,1.55a1,1,0,0,0-.5.85l-.06,3.59-2.23.66L26.73,41a1,1,0,0,0-.84-.46H22.79a1,1,0,0,0-.84.46l-1.82,2.85-2.23-.65-.06-3.58a1,1,0,0,0-.5-.85l-2.68-1.56a1,1,0,0,0-1,0l-3.12,1.73L8.94,37.28l1.73-3.12a1,1,0,0,0,0-1L9.12,30.5a1,1,0,0,0-.85-.5l-3.59-.06L4,27.71l2.85-1.82A1,1,0,0,0,7.34,25V22a1,1,0,0,0-.46-.84L4,19.29l.65-2.23L8.26,17a1,1,0,0,0,.85-.5l1.56-2.68a1,1,0,0,0,0-1L8.94,9.72,10.55,8.1l3.12,1.73a1,1,0,0,0,1,0l2.68-1.55a1,1,0,0,0,.5-.85l.06-3.59,2.23-.66L21.95,6a1,1,0,0,0,.84.46h3.09A1,1,0,0,0,26.73,6l1.82-2.85,2.23.65.06,3.58a1,1,0,0,0,.5.85L34,9.83a1,1,0,0,0,1,0l3.12-1.73,1.61,1.61L38,12.83a1,1,0,0,0,0,1l1.55,2.68a1,1,0,0,0,.85.5l3.59.06.66,2.23L41.8,21.11a1,1,0,0,0-.46.84V25a1,1,0,0,0,.46.84l2.85,1.82Z"/><path class="cls-1" d="M37,16.5h0a1,1,0,0,0-.07-.35s0,0,0,0l0-.05a1,1,0,0,0-.15-.23l-.06-.07a1,1,0,0,0-.29-.19l-12-5a1,1,0,0,0-.77,0l-12,5h0a1,1,0,0,0-.28.18l-.07.08a1,1,0,0,0-.15.22l0,.05s0,0,0,0a1,1,0,0,0-.07.35h0v14a1,1,0,0,0,.62.92l12,5h0a1,1,0,0,0,.77,0h0l12-5A1,1,0,0,0,37,30.5v-14ZM24,12.58l9.4,3.92L24,20.42,14.6,16.5ZM13,18l10,4.17V34L13,29.83ZM25,34V22.17L35,18V29.83Z"/></g></svg>