<svg xmlns="http://www.w3.org/2000/svg" width="198" height="36"><g fill="#D3002D" fill-rule="evenodd"><path d="M64.516 20.264c3.927-1.176 6.79-4.806 6.792-9.116a9.523 9.523 0 00-9.522-9.522H45.383v32.646h5.442V20.67h7.578l8.21 13.602h6.345l-8.442-14.008zm-13.69-5.037V7.065h10.96a4.087 4.087 0 014.08 4.083 4.087 4.087 0 01-4.08 4.079h-10.96zM41.526 5.099a4.007 4.007 0 01-4.005 4.008 4.008 4.008 0 010-8.013A4.005 4.005 0 0141.527 5.1M0 18.1C.001 8.707 7.611 1.096 17.004 1.094c9.392.002 17.001 7.613 17.003 17.005-.002 9.39-7.61 17.001-17.003 17.003C7.611 35.1.001 27.49 0 18.1M8.827 9.92a11.525 11.525 0 00-3.386 8.18c.001 3.2 1.29 6.073 3.386 8.173a11.518 11.518 0 008.177 3.388 11.517 11.517 0 008.175-3.388 11.503 11.503 0 003.386-8.174c0-3.203-1.289-6.075-3.386-8.179a11.526 11.526 0 00-8.175-3.384A11.527 11.527 0 008.827 9.92M187.27 1.625h-6.612l-8.374 12.12-8.375-12.12h-6.612l12.259 17.75v14.896H175V19.388zM193.708.897a4.028 4.028 0 00-4.028 4.026 4.028 4.028 0 008.054 0 4.028 4.028 0 00-4.026-4.026m0 7.408a3.383 3.383 0 010-6.765 3.383 3.383 0 010 6.765"/><path d="M195.513 4.038c0-.661-.533-1.196-1.195-1.196h-2.266v4.103h.681V5.236h1.15l.822 1.709h.761l-.842-1.748c.513-.135.89-.602.89-1.159zm-2.78-.512h1.585a.51.51 0 01.511.512.51.51 0 01-.51.514h-1.586V3.526zM99.462 7.064V1.625H76.766v32.646h22.696v-5.442H82.205v-8.161h16.426v-5.442H82.205V7.064zM116.303 34.271V1.625h5.441v27.204h15.696v5.442zM141.875 34.271V1.625h5.443v27.204h15.695v5.442zM105.172 34.271h5.44V1.625h-5.44z"/></g></svg>