<svg id="Layer_1" data-name="Layer 1" xmlns="http://www.w3.org/2000/svg" viewBox="0 0 48 47"><defs><style>.cls-1{fill:#1180c4;}</style></defs><title>Artboard 1</title><path class="cls-1" d="M7,23.5a1,1,0,0,0,.39-1.92L2,19.33V7.5l10,4.17V20a1,1,0,0,0,2,0V11.67L24,7.5V10a1,1,0,0,0,2,0V6h0a1,1,0,0,0-.07-.35s0,0,0,0l0-.05a1,1,0,0,0-.15-.22l-.07-.07a1,1,0,0,0-.28-.19h0l-12-5a1,1,0,0,0-.77,0l-12,5h0a1,1,0,0,0-.28.19l-.07.08a1,1,0,0,0-.15.22l0,.05s0,0,0,0A1,1,0,0,0,0,6H0V20a1,1,0,0,0,.62.92l6,2.5A1,1,0,0,0,7,23.5ZM13,2.08,22.4,6,13,9.92,3.6,6Z"/><path class="cls-1" d="M29,27h0a1,1,0,0,0-.07-.35s0,0,0,0l0-.05a1,1,0,0,0-.15-.22l-.07-.07a1,1,0,0,0-.29-.19l-12-5a1,1,0,0,0-.77,0l-12,5h0a1,1,0,0,0-.29.19l-.07.07a1,1,0,0,0-.15.22l0,.05s0,0,0,0A1,1,0,0,0,3,27H3V41a1,1,0,0,0,.62.92l12,5h0a1,1,0,0,0,.77,0h0l12-5A1,1,0,0,0,29,41V27ZM16,23.08,25.4,27,16,30.92,6.6,27ZM5,28.5l10,4.17V44.5L5,40.33Zm12,16V32.67L27,28.5V40.33Z"/><path class="cls-1" d="M48,14h0a1,1,0,0,0-.07-.35s0,0,0,0l0-.05a1,1,0,0,0-.15-.23l-.06-.07a1,1,0,0,0-.29-.19l-12-5a1,1,0,0,0-.77,0l-12,5h0a1,1,0,0,0-.29.19l-.07.07a1,1,0,0,0-.15.22l0,.05s0,0,0,0A1,1,0,0,0,22,14h0v8a1,1,0,0,0,2,0V15.5l10,4.17V31.5l-2.61-1.09a1,1,0,0,0-.77,1.85l4,1.66h0a1,1,0,0,0,.77,0h0l12-5A1,1,0,0,0,48,28V14ZM35,10.08,44.4,14,35,17.92,25.6,14ZM36,31.5V19.67L46,15.5V27.33Z"/></svg>